{"title":"The.Water.Diviner [2014] LIMITED.BRRip.XviD.MP3-RARBG","uid":11761795,"size":1508868856,"categoryP":"video","categoryS":"movies","magnet":"?xt=urn:btih:fd5989587098b2ba3e19d1e117282e8f38e5df31&amp;dn=The.Water.Diviner+%5B2014%5D+LIMITED.BRRip.XviD.MP3-RARBG&amp;tr=udp%3A%2F%2Ftracker.openbittorrent.com%3A80&amp;tr=udp%3A%2F%2Fopen.demonii.com%3A1337&amp;tr=udp%3A%2F%2Ftracker.coppersurfer.tk%3A6969&amp;tr=udp%3A%2F%2Fexodus.desync.com%3A6969","seeders":15,"leechers":1,"uploader":"yerisan710","files":17,"time":1426608175,"description":"****************************************************************************\n                                    Video\n****************************************************************************\nID                                       : 0\nFormat                                   : MPEG-4 Visual\nFormat profile                           : Simple@L5\nFormat settings, BVOP                    : No\nFormat settings, QPel                    : No\nFormat settings, GMC                     : No warppoints\nFormat settings, Matrix                  : Default (H.263)\nCodec ID                                 : XVID\nCodec ID/Hint                            : XviD\nDuration                                 : 1h 51mn\nBit rate                                 : 1 596 Kbps\nWidth                                    : 720 pixels\nHeight                                   : 302 pixels\nDisplay aspect ratio                     : 2.40:1\nOriginal display aspect ratio            : 2.40:1\nFrame rate                               : 24.000 fps\nColor space                              : YUV\nChroma subsampling                       : 4:2:0\nBit depth                                : 8 bits\nScan type                                : Progressive\nCompression mode                         : Lossy\nBits/(Pixel*Frame)                       : 0.306\nStream size                              : 1.24 GiB (89%)\nTitle                                    : RARBG.COM - The.Water.Diviner.2014.LIMITED.BRRip.XviD.MP3-RARBG\nWriting library                          : Lavc56.19.100\n\n****************************************************************************\n                                   Audio\n****************************************************************************\nID                                       : 1\nFormat                                   : MPEG Audio\nFormat version                           : Version 1\nFormat profile                           : Layer 3\nMode                                     : Joint stereo\nMode extension                           : MS Stereo\nCodec ID                                 : 55\nCodec ID/Hint                            : MP3\nDuration                                 : 1h 51mn\nBit rate mode                            : Constant\nBit rate                                 : 192 Kbps\nChannel(s)                               : 2 channels\nSampling rate                            : 48.0 KHz\nCompression mode                         : Lossy\nStream size                              : 153 MiB (11%)\nAlignment                                : Aligned on interleaves\nInterleave, duration                     : 24 ms (0.58 video frame)\nInterleave, preload duration             : 24 ms\nTitle                                    : RARBG.COM - The.Water.Diviner.2014.LIMITED.BRRip.XviD.MP3-RARBG\nWriting library                          : LAME3.99.5\n\n****************************************************************************\n\n****************************************************************************\n                              ScreenShot\n****************************************************************************\n\n****************************************************************************\n\n-------------------------------------------------------------------------------\n                             Yerisan Group\n-------------------------------------------------------------------------------\n                       (for your consideration)\n\n\n                    Please Seed\n Enjoy  \n\n           Please Seed  \n                                  Enjoy\n-------------------------------------------------------------------------------\n   Free Torrents DOES **NOT** MEAN YOU CAN HIT &amp; RUN!!","torrent":{"xt":"urn:btih:fd5989587098b2ba3e19d1e117282e8f38e5df31","amp;dn":"The.Water.Diviner+%5B2014%5D+LIMITED.BRRip.XviD.MP3-RARBG","amp;tr":["udp%3A%2F%2Ftracker.openbittorrent.com%3A80","udp%3A%2F%2Fopen.demonii.com%3A1337","udp%3A%2F%2Ftracker.coppersurfer.tk%3A6969","udp%3A%2F%2Fexodus.desync.com%3A6969"],"infoHash":"fd5989587098b2ba3e19d1e117282e8f38e5df31","infoHashBuffer":{"type":"Buffer","data":[253,89,137,88,112,152,178,186,62,25,209,225,23,40,46,143,56,229,223,49]},"announce":[],"urlList":[]}}